<svg width="918" height="920" viewBox="0 0 918 920" fill="none" xmlns="http://www.w3.org/2000/svg">
<rect width="918" height="920" rx="50" fill="url(#paint0_linear_1579_26)"/>
<path fill-rule="evenodd" clip-rule="evenodd" d="M493 419.636C500.094 445.613 502.18 461.869 500 496.136C505.305 508.234 510.382 510.4 522 508.636C554.021 477.668 568.131 462.693 585 441.136C596.355 415.671 597.026 399.791 593.5 370.136C666.401 300.987 707.089 262.067 704.5 130.636C701.843 124.428 699.545 121.32 692.5 117.136C622.074 115.87 589.377 123.22 541 148.136C493.029 177.196 474.059 195.331 446.5 229.136C415.062 225.902 400.966 226.432 384.5 233.136C368.144 241.038 359.588 246.514 346 259.136L305 302.136C303.587 314.971 306.198 320.006 318.5 324.136C356.455 323.083 373.434 324.553 396.5 330.636C393.508 340.046 392.464 345.309 393.5 354.636L464.5 424.636C475.771 426.028 482.017 425.069 493 419.636ZM481 372.636C576 349.636 655 255.636 655 167.136C551.371 170.368 474.62 243.141 446.5 337.636L481 372.636Z" fill="#D3EC51" stroke="white"/>
<path d="M706 586.136V291.136C681.962 333 665.405 353.225 630.5 383.636V397.636C629.5 430.636 622.5 444.636 613.5 461.136C604.5 477.636 590.544 490.096 573 504.636V622.136C573.031 647.155 572.083 659.798 568.5 679.636C555.864 720.186 544.367 739.11 515.5 765.636C489.307 785.278 473.281 793.622 442 803.136C495.322 804.71 522.372 800.83 572.5 780.636C610.835 760.834 629.69 745.766 658.5 711.636C675.061 689.06 682.829 674.384 694 644.636C700.204 623.813 703.377 611.731 706 586.136Z" fill="#D3EC51"/>
<path d="M437.5 782.636C483.708 773.719 534.5 732.136 546.5 677.636L537 687.136C532.742 690.536 530.225 692.512 525.5 696.136C498.758 711.094 481.011 715.01 444.5 714.136C407.5 711.636 386.36 705.209 363.5 680.636C340.64 656.063 339.286 644.366 336 604.636C322.652 634.413 319.659 654.68 321 696.136C324.964 715.957 328.066 724.955 335 737.636C352.155 769.827 391.292 791.554 437.5 782.636Z" fill="#D3EC51"/>
<path d="M440 444.136L375.5 379.636C364.12 391.819 370.789 384.993 344.5 410.136C318.211 435.279 284.403 473.263 260 508.136C232.944 549.291 222.509 574.407 213 623.136V664.136C215.51 675.816 216.978 682.217 220 692.636C231.872 723.073 242.12 738.62 268 763.136C313.013 790.435 338.986 799.656 387 802.136C335.371 782.915 312.128 755.254 301.5 692.636V657.636C304.285 634.012 306.753 620.823 316.5 597.636C331.052 563.956 342.157 546.521 367.5 518.136C395.359 488.782 411.231 472.578 440 444.136Z" fill="#D3EC51"/>
<path d="M706 586.136V291.136C681.962 333 665.405 353.225 630.5 383.636V397.636C629.5 430.636 622.5 444.636 613.5 461.136C604.5 477.636 590.544 490.096 573 504.636V622.136C573.031 647.155 572.083 659.798 568.5 679.636C555.864 720.186 544.367 739.11 515.5 765.636C489.307 785.278 473.281 793.622 442 803.136C495.322 804.71 522.372 800.83 572.5 780.636C610.835 760.834 629.69 745.766 658.5 711.636C675.061 689.06 682.829 674.384 694 644.636C700.204 623.813 703.377 611.731 706 586.136Z" stroke="white"/>
<path d="M437.5 782.636C483.708 773.719 534.5 732.136 546.5 677.636L537 687.136C532.742 690.536 530.225 692.512 525.5 696.136C498.758 711.094 481.011 715.01 444.5 714.136C407.5 711.636 386.36 705.209 363.5 680.636C340.64 656.063 339.286 644.366 336 604.636C322.652 634.413 319.659 654.68 321 696.136C324.964 715.957 328.066 724.955 335 737.636C352.155 769.827 391.292 791.554 437.5 782.636Z" stroke="white"/>
<path d="M440 444.136L375.5 379.636C364.12 391.819 370.789 384.993 344.5 410.136C318.211 435.279 284.403 473.263 260 508.136C232.944 549.291 222.509 574.407 213 623.136V664.136C215.51 675.816 216.978 682.217 220 692.636C231.872 723.073 242.12 738.62 268 763.136C313.013 790.435 338.986 799.656 387 802.136C335.371 782.915 312.128 755.254 301.5 692.636V657.636C304.285 634.012 306.753 620.823 316.5 597.636C331.052 563.956 342.157 546.521 367.5 518.136C395.359 488.782 411.231 472.578 440 444.136Z" stroke="white"/>
<defs>
<linearGradient id="paint0_linear_1579_26" x1="459" y1="0" x2="459" y2="920" gradientUnits="userSpaceOnUse">
<stop offset="0.389423" stop-color="#010F34"/>
<stop offset="1" stop-color="#032C9A"/>
</linearGradient>
</defs>
</svg>
