<svg width="251" height="77" viewBox="0 0 251 77" fill="none" xmlns="http://www.w3.org/2000/svg">
<path d="M3.38672 53.7082V3.88612H25.5205C29.4089 3.88612 32.6741 4.397 35.3164 5.41875C37.9749 6.44046 39.9773 7.8839 41.3232 9.74897C42.6858 11.6141 43.3672 13.8116 43.3672 16.3416C43.3672 18.1743 42.9516 19.8447 42.1209 21.353C41.3067 22.8613 40.16 24.1263 38.6813 25.1481C37.2022 26.1536 35.4742 26.851 33.4968 27.2402V27.7269C35.6901 27.808 37.6843 28.3511 39.4789 29.3567C41.2735 30.3459 42.7026 31.7163 43.7661 33.4679C44.8294 35.2033 45.3611 37.2469 45.3611 39.5986C45.3611 42.3232 44.63 44.7477 43.1678 46.8722C41.7222 48.9969 39.6617 50.6674 36.9863 51.8838C34.311 53.1001 31.1204 53.7082 27.4149 53.7082H3.38672ZM17.2453 42.9068H23.7259C26.0523 42.9068 27.7971 42.4854 28.9602 41.6419C30.1234 40.7823 30.7052 39.5174 30.7052 37.8467C30.7052 36.6791 30.4308 35.6899 29.8825 34.8791C29.3342 34.068 28.5531 33.4517 27.5395 33.03C26.5425 32.6085 25.3378 32.3975 23.9253 32.3975H17.2453V42.9068ZM17.2453 24.029H22.9283C24.1413 24.029 25.2131 23.8425 26.1437 23.4695C27.0742 23.0965 27.7971 22.5613 28.3122 21.8639C28.844 21.1503 29.1099 20.2826 29.1099 19.2609C29.1099 17.7202 28.5447 16.5444 27.4149 15.7335C26.2849 14.9063 24.8559 14.4928 23.1277 14.4928H17.2453V24.029ZM75.2967 37.3603V16.3416H89.0556V53.7082H75.9946V46.6047H75.596C74.7649 48.9887 73.3111 50.8537 71.2338 52.2C69.1567 53.5298 66.6891 54.1949 63.831 54.1949C61.1556 54.1949 58.8127 53.5947 56.8021 52.3945C54.8079 51.1943 53.2542 49.5401 52.1409 47.4317C51.0443 45.3234 50.4875 42.9068 50.471 40.1822V16.3416H64.2299V37.3603C64.2465 39.2092 64.7283 40.6607 65.6756 41.7148C66.6391 42.769 67.9854 43.2962 69.7135 43.2962C70.8601 43.2962 71.8487 43.0611 72.6794 42.5906C73.527 42.1042 74.175 41.423 74.6237 40.5472C75.0889 39.6553 75.3132 38.5929 75.2967 37.3603ZM109.912 54.1949C107.187 54.1949 104.678 53.4975 102.384 52.1027C100.108 50.7079 98.28 48.5914 96.9009 45.7531C95.5384 42.915 94.857 39.3391 94.857 35.0249C94.857 30.5164 95.5715 26.851 97.0006 24.029C98.4462 21.2071 100.307 19.1393 102.584 17.8256C104.877 16.5119 107.287 15.8551 109.812 15.8551C111.707 15.8551 113.368 16.1795 114.797 16.8282C116.227 17.4607 117.423 18.3121 118.387 19.3825C119.351 20.4367 120.082 21.5963 120.58 22.8613H120.78V3.88612H134.538V53.7082H120.879V47.5778H120.58C120.048 48.8427 119.284 49.9779 118.287 50.9836C117.307 51.9728 116.11 52.7595 114.698 53.3432C113.302 53.911 111.707 54.1949 109.912 54.1949ZM114.997 43.8801C116.26 43.8801 117.34 43.5231 118.237 42.8095C119.151 42.0798 119.849 41.058 120.331 39.7443C120.829 38.4145 121.079 36.8414 121.079 35.0249C121.079 33.176 120.829 31.5947 120.331 30.281C119.849 28.9512 119.151 27.9376 118.237 27.2402C117.34 26.5266 116.26 26.1698 114.997 26.1698C113.734 26.1698 112.654 26.5266 111.757 27.2402C110.876 27.9376 110.194 28.9512 109.713 30.281C109.247 31.5947 109.015 33.176 109.015 35.0249C109.015 36.8737 109.247 38.4633 109.713 39.7931C110.194 41.1068 110.876 42.1204 111.757 42.8339C112.654 43.5313 113.734 43.8801 114.997 43.8801ZM201.588 54.3894C197.5 54.3894 193.977 53.6271 191.019 52.1027C188.078 50.5619 185.81 48.3563 184.215 45.4856C182.636 42.5988 181.847 39.1442 181.847 35.1221C181.847 31.2623 182.645 27.8891 184.24 25.0021C185.835 22.1153 188.087 19.8691 190.994 18.2635C193.903 16.6579 197.334 15.8551 201.289 15.8551C204.18 15.8551 206.797 16.293 209.14 17.1688C211.483 18.0445 213.486 19.3177 215.147 20.9881C216.809 22.6424 218.089 24.6534 218.986 27.0213C219.883 29.3891 220.332 32.0569 220.332 35.0249V38.1388H186.134V30.7433H207.67C207.653 29.673 207.371 28.7322 206.822 27.9214C206.291 27.0942 205.568 26.4536 204.654 25.9995C203.756 25.5292 202.735 25.294 201.588 25.294C200.475 25.294 199.453 25.5292 198.522 25.9995C197.592 26.4536 196.844 27.0861 196.279 27.897C195.73 28.7078 195.44 29.6568 195.406 30.7433V38.7225C195.406 39.9227 195.664 40.993 196.179 41.9338C196.694 42.8745 197.434 43.6124 198.398 44.1476C199.361 44.6827 200.524 44.9505 201.887 44.9505C202.834 44.9505 203.698 44.8206 204.479 44.5611C205.277 44.3016 205.958 43.9286 206.523 43.4422C207.088 42.9394 207.503 42.3393 207.769 41.6419H220.332C219.9 44.2369 218.878 46.491 217.266 48.4048C215.654 50.3024 213.519 51.7783 210.86 52.8324C208.218 53.8704 205.127 54.3894 201.588 54.3894ZM248.778 16.3416V26.0725H223.553V16.3416H248.778ZM228.439 7.38923H242.198V41.6904C242.198 42.2094 242.289 42.6473 242.472 43.0044C242.655 43.3447 242.937 43.6042 243.319 43.7826C243.702 43.9448 244.192 44.0259 244.79 44.0259C245.205 44.0259 245.687 43.9774 246.236 43.8801C246.801 43.7826 247.216 43.7015 247.482 43.6368L249.476 53.0757C248.861 53.2541 247.98 53.4731 246.834 53.7326C245.704 53.9921 244.358 54.1622 242.796 54.2434C239.639 54.4056 236.988 54.0894 234.845 53.2947C232.701 52.4836 231.089 51.2105 230.009 49.4754C228.929 47.74 228.406 45.5667 228.439 42.9556V7.38923Z" fill="#D4E866"/>
<path d="M172.636 19.23C174.671 20.0007 175.968 21.9584 175.741 24.0772C175.353 27.683 174.529 33.3224 172.898 37.5722C171.082 42.3015 165.681 48.0861 162.596 51.139C161.255 52.4666 159.242 52.8442 157.454 52.1852L152.971 50.5323C151.17 49.8683 149.911 48.2675 149.839 46.3902C149.69 42.5531 149.745 35.9267 151.484 31.3894C153.233 26.825 157.891 21.1754 160.708 18.0116C162.049 16.506 164.21 16.039 166.115 16.7606L172.636 19.23ZM163.023 24.3975C160.784 25.1327 159.579 27.5 160.332 29.6853C161.086 31.8706 163.511 33.0462 165.751 32.311C167.989 31.5758 169.194 29.2082 168.44 27.0229C167.687 24.8377 165.262 23.6623 163.023 24.3975Z" fill="#D4E866"/>
<path d="M171.919 8.84281C173.109 8.01649 174.773 8.69974 175 10.1074L176.091 16.871C176.33 18.3555 174.806 19.5198 173.387 18.9373L166.582 16.144C165.162 15.5615 164.949 13.6845 166.204 12.8131L171.919 8.84281Z" fill="#D4E866"/>
<path d="M168.099 47.1185C168.912 46.22 170.632 46.9826 170.348 48.1483L168.835 54.3379C168.632 55.1704 167.573 55.4644 166.951 54.8607L164.3 52.2874C163.836 51.8369 163.862 51.0948 164.35 50.6693C165.384 49.7694 167.059 48.2683 168.099 47.1185Z" fill="#D4E866"/>
<path d="M148.735 40.2365C148.84 39.0423 147.086 38.3542 146.419 39.3604L142.877 44.7022C142.4 45.4207 142.914 46.3713 143.79 46.3935L147.528 46.488C148.183 46.5044 148.715 45.9734 148.692 45.3346C148.646 43.9837 148.601 41.7647 148.735 40.2365Z" fill="#D4E866"/>
<path d="M147.143 53.489C148.036 51.7262 150.147 50.9041 152.039 51.5826L154.04 52.3005C157.019 53.369 158.263 56.8205 156.627 59.4741L155.729 60.9297C154.548 62.8438 152.138 63.6653 149.993 62.8849C147.695 62.0488 145.122 63.0556 144.053 65.2097L142.691 67.951C141.597 70.1533 139.015 71.2398 136.623 70.5035L92.3701 56.8783L134.212 63.6658C136.93 64.1067 139.498 62.3094 139.942 59.6555L140.071 58.8847C140.373 57.0803 141.936 55.7242 143.807 55.6272C145.23 55.5532 146.511 54.7355 147.143 53.489Z" fill="#D4E866"/>
</svg>
